<svg xmlns="http://www.w3.org/2000/svg" version="1.1" xmlns:xlink="http://www.w3.org/1999/xlink" xmlns:svgjs="http://svgjs.com/svgjs" width="1440" height="1440" preserveAspectRatio="none" viewBox="0 0 1440 1440"><g mask="url(&quot;#SvgjsMask1075&quot;)" fill="none"><rect width="1440" height="1440" x="0" y="0" fill="url(#SvgjsLinearGradient1076)"></rect><g mask="url(&quot;#SvgjsMask1077&quot;)"><path d="M412.5 712.5L437.5 737.5L462.5 737.5L487.5 737.5M487.5 712.5L512.5 712.5L537.5 712.5L562.5 712.5M437.5 712.5L462.5 687.5L487.5 687.5L512.5 687.5L537.5 687.5M362.5 712.5L387.5 737.5L412.5 737.5M337.5 687.5L362.5 687.5L387.5 687.5L412.5 687.5L437.5 687.5L462.5 662.5M-12.5 712.5L12.5 712.5L37.5 712.5L62.5 712.5L87.5 712.5L112.5 712.5L137.5 712.5L162.5 712.5L187.5 712.5L212.5 712.5L237.5 712.5L262.5 687.5L287.5 687.5L312.5 687.5L337.5 687.5L362.5 712.5L387.5 712.5L412.5 712.5L437.5 712.5L462.5 712.5L487.5 712.5L512.5 737.5L537.5 737.5" stroke="#3a7cc3" stroke-width="4.17"></path><path d="M531.25 737.5 a6.25 6.25 0 1 0 12.5 0 a6.25 6.25 0 1 0 -12.5 0zM481.25 737.5 a6.25 6.25 0 1 0 12.5 0 a6.25 6.25 0 1 0 -12.5 0zM556.25 712.5 a6.25 6.25 0 1 0 12.5 0 a6.25 6.25 0 1 0 -12.5 0zM531.25 687.5 a6.25 6.25 0 1 0 12.5 0 a6.25 6.25 0 1 0 -12.5 0zM406.25 737.5 a6.25 6.25 0 1 0 12.5 0 a6.25 6.25 0 1 0 -12.5 0zM456.25 662.5 a6.25 6.25 0 1 0 12.5 0 a6.25 6.25 0 1 0 -12.5 0z" fill="#3a7cc3"></path><path d="M-12.5 737.5L12.5 737.5L37.5 737.5L62.5 737.5L87.5 737.5L112.5 737.5L137.5 737.5L162.5 737.5L187.5 737.5L212.5 737.5L237.5 737.5" stroke="#3a7cc3" stroke-width="4.17"></path><path d="M231.25 737.5 a6.25 6.25 0 1 0 12.5 0 a6.25 6.25 0 1 0 -12.5 0z" fill="#3a7cc3"></path><path d="M-12.5 687.5L12.5 687.5L37.5 687.5" stroke="#dd1133" stroke-width="4.17"></path><path d="M31.25 687.5 a6.25 6.25 0 1 0 12.5 0 a6.25 6.25 0 1 0 -12.5 0z" fill="#dd1133"></path><path d="M462.5 762.5L487.5 787.5L512.5 787.5L537.5 787.5M362.5 762.5L387.5 787.5M287.5 762.5L312.5 787.5M337.5 762.5L362.5 737.5M162.5 762.5L187.5 787.5L212.5 787.5L237.5 787.5L262.5 787.5L287.5 787.5M312.5 762.5L337.5 737.5M-12.5 762.5L12.5 762.5L37.5 762.5L62.5 762.5L87.5 762.5L112.5 762.5L137.5 762.5L162.5 762.5L187.5 762.5L212.5 762.5L237.5 762.5L262.5 762.5L287.5 762.5L312.5 762.5L337.5 762.5L362.5 762.5L387.5 762.5L412.5 762.5L437.5 762.5L462.5 762.5L487.5 762.5L512.5 762.5L537.5 762.5L562.5 762.5" stroke="#3a7cc3" stroke-width="4.17"></path><path d="M556.25 762.5 a6.25 6.25 0 1 0 12.5 0 a6.25 6.25 0 1 0 -12.5 0zM531.25 787.5 a6.25 6.25 0 1 0 12.5 0 a6.25 6.25 0 1 0 -12.5 0zM381.25 787.5 a6.25 6.25 0 1 0 12.5 0 a6.25 6.25 0 1 0 -12.5 0zM306.25 787.5 a6.25 6.25 0 1 0 12.5 0 a6.25 6.25 0 1 0 -12.5 0zM356.25 737.5 a6.25 6.25 0 1 0 12.5 0 a6.25 6.25 0 1 0 -12.5 0zM281.25 787.5 a6.25 6.25 0 1 0 12.5 0 a6.25 6.25 0 1 0 -12.5 0zM331.25 737.5 a6.25 6.25 0 1 0 12.5 0 a6.25 6.25 0 1 0 -12.5 0z" fill="#3a7cc3"></path><path d="M187.5 687.5L212.5 662.5L237.5 662.5L262.5 637.5M87.5 662.5L112.5 687.5L137.5 687.5M162.5 687.5L187.5 662.5L212.5 637.5M-12.5 662.5L12.5 662.5L37.5 662.5L62.5 662.5L87.5 662.5L112.5 662.5L137.5 662.5L162.5 687.5L187.5 687.5L212.5 687.5L237.5 687.5L262.5 662.5L287.5 662.5" stroke="#dd1133" stroke-width="4.17"></path><path d="M281.25 662.5 a6.25 6.25 0 1 0 12.5 0 a6.25 6.25 0 1 0 -12.5 0zM256.25 637.5 a6.25 6.25 0 1 0 12.5 0 a6.25 6.25 0 1 0 -12.5 0zM131.25 687.5 a6.25 6.25 0 1 0 12.5 0 a6.25 6.25 0 1 0 -12.5 0zM206.25 637.5 a6.25 6.25 0 1 0 12.5 0 a6.25 6.25 0 1 0 -12.5 0z" fill="#dd1133"></path><path d="M287.5 812.5L312.5 837.5L337.5 837.5L362.5 862.5M237.5 812.5L262.5 837.5L287.5 837.5L312.5 862.5L337.5 862.5M137.5 787.5L162.5 787.5M-12.5 787.5L12.5 787.5L37.5 787.5L62.5 787.5L87.5 787.5L112.5 787.5L137.5 787.5L162.5 812.5L187.5 812.5L212.5 812.5L237.5 812.5L262.5 812.5L287.5 812.5L312.5 812.5" stroke="#dd1133" stroke-width="4.17"></path><path d="M306.25 812.5 a6.25 6.25 0 1 0 12.5 0 a6.25 6.25 0 1 0 -12.5 0zM356.25 862.5 a6.25 6.25 0 1 0 12.5 0 a6.25 6.25 0 1 0 -12.5 0zM331.25 862.5 a6.25 6.25 0 1 0 12.5 0 a6.25 6.25 0 1 0 -12.5 0zM156.25 787.5 a6.25 6.25 0 1 0 12.5 0 a6.25 6.25 0 1 0 -12.5 0z" fill="#dd1133"></path><path d="M387.5 612.5L412.5 612.5L437.5 612.5L462.5 637.5L487.5 662.5L512.5 662.5L537.5 662.5L562.5 662.5M512.5 587.5L537.5 587.5L562.5 587.5M637.5 587.5L662.5 562.5M287.5 612.5L312.5 637.5L337.5 637.5M462.5 587.5L487.5 612.5L512.5 612.5L537.5 612.5L562.5 612.5L587.5 612.5L612.5 612.5L637.5 612.5M362.5 612.5L387.5 637.5L412.5 637.5M112.5 637.5L137.5 637.5L162.5 637.5M-12.5 637.5L12.5 637.5L37.5 637.5L62.5 637.5L87.5 637.5L112.5 637.5L137.5 612.5L162.5 612.5L187.5 612.5L212.5 612.5L237.5 612.5L262.5 612.5L287.5 612.5L312.5 612.5L337.5 612.5L362.5 612.5L387.5 612.5L412.5 587.5L437.5 587.5L462.5 587.5L487.5 587.5L512.5 587.5L537.5 562.5L562.5 562.5L587.5 562.5L612.5 562.5L637.5 587.5L662.5 587.5" stroke="#dd1133" stroke-width="4.17"></path><path d="M656.25 587.5 a6.25 6.25 0 1 0 12.5 0 a6.25 6.25 0 1 0 -12.5 0zM556.25 662.5 a6.25 6.25 0 1 0 12.5 0 a6.25 6.25 0 1 0 -12.5 0zM556.25 587.5 a6.25 6.25 0 1 0 12.5 0 a6.25 6.25 0 1 0 -12.5 0zM656.25 562.5 a6.25 6.25 0 1 0 12.5 0 a6.25 6.25 0 1 0 -12.5 0zM331.25 637.5 a6.25 6.25 0 1 0 12.5 0 a6.25 6.25 0 1 0 -12.5 0zM631.25 612.5 a6.25 6.25 0 1 0 12.5 0 a6.25 6.25 0 1 0 -12.5 0zM406.25 637.5 a6.25 6.25 0 1 0 12.5 0 a6.25 6.25 0 1 0 -12.5 0zM156.25 637.5 a6.25 6.25 0 1 0 12.5 0 a6.25 6.25 0 1 0 -12.5 0z" fill="#dd1133"></path><path d="M112.5 812.5L137.5 812.5M-12.5 812.5L12.5 812.5L37.5 812.5L62.5 812.5L87.5 812.5L112.5 812.5L137.5 837.5L162.5 837.5L187.5 837.5" stroke="#3a7cc3" stroke-width="4.17"></path><path d="M181.25 837.5 a6.25 6.25 0 1 0 12.5 0 a6.25 6.25 0 1 0 -12.5 0zM131.25 812.5 a6.25 6.25 0 1 0 12.5 0 a6.25 6.25 0 1 0 -12.5 0z" fill="#3a7cc3"></path><path d="M-12.5 612.5L12.5 612.5L37.5 612.5L62.5 612.5L87.5 612.5L112.5 612.5" stroke="#3a7cc3" stroke-width="4.17"></path><path d="M106.25 612.5 a6.25 6.25 0 1 0 12.5 0 a6.25 6.25 0 1 0 -12.5 0z" fill="#3a7cc3"></path><path d="M162.5 862.5L187.5 862.5L212.5 862.5M-12.5 837.5L12.5 837.5L37.5 837.5L62.5 837.5L87.5 837.5L112.5 837.5L137.5 862.5L162.5 862.5L187.5 887.5L212.5 887.5L237.5 887.5" stroke="#dd1133" stroke-width="4.17"></path><path d="M231.25 887.5 a6.25 6.25 0 1 0 12.5 0 a6.25 6.25 0 1 0 -12.5 0zM206.25 862.5 a6.25 6.25 0 1 0 12.5 0 a6.25 6.25 0 1 0 -12.5 0z" fill="#dd1133"></path><path d="M287.5 587.5L312.5 562.5L337.5 562.5L362.5 562.5M187.5 562.5L212.5 562.5L237.5 562.5L262.5 562.5M137.5 587.5L162.5 587.5L187.5 587.5M-12.5 587.5L12.5 587.5L37.5 587.5L62.5 587.5L87.5 587.5L112.5 587.5L137.5 587.5L162.5 562.5L187.5 562.5L212.5 587.5L237.5 587.5L262.5 587.5L287.5 587.5L312.5 587.5L337.5 587.5" stroke="#3a7cc3" stroke-width="4.17"></path><path d="M331.25 587.5 a6.25 6.25 0 1 0 12.5 0 a6.25 6.25 0 1 0 -12.5 0zM356.25 562.5 a6.25 6.25 0 1 0 12.5 0 a6.25 6.25 0 1 0 -12.5 0zM256.25 562.5 a6.25 6.25 0 1 0 12.5 0 a6.25 6.25 0 1 0 -12.5 0zM181.25 587.5 a6.25 6.25 0 1 0 12.5 0 a6.25 6.25 0 1 0 -12.5 0z" fill="#3a7cc3"></path><path d="M487.5 912.5L512.5 937.5L537.5 962.5L562.5 962.5L587.5 962.5L612.5 962.5L637.5 937.5L662.5 937.5M287.5 912.5L312.5 887.5M87.5 862.5L112.5 887.5M137.5 887.5L162.5 887.5M362.5 912.5L387.5 887.5L412.5 887.5L437.5 887.5M412.5 912.5L437.5 937.5L462.5 937.5L487.5 937.5L512.5 962.5L537.5 987.5L562.5 987.5M-12.5 862.5L12.5 862.5L37.5 862.5L62.5 862.5L87.5 862.5L112.5 862.5L137.5 887.5L162.5 912.5L187.5 912.5L212.5 937.5L237.5 937.5L262.5 937.5L287.5 912.5L312.5 912.5L337.5 912.5L362.5 912.5L387.5 912.5L412.5 912.5L437.5 912.5L462.5 912.5L487.5 912.5L512.5 912.5L537.5 912.5L562.5 912.5L587.5 912.5L612.5 912.5L637.5 912.5" stroke="#dd1133" stroke-width="4.17"></path><path d="M631.25 912.5 a6.25 6.25 0 1 0 12.5 0 a6.25 6.25 0 1 0 -12.5 0zM656.25 937.5 a6.25 6.25 0 1 0 12.5 0 a6.25 6.25 0 1 0 -12.5 0zM306.25 887.5 a6.25 6.25 0 1 0 12.5 0 a6.25 6.25 0 1 0 -12.5 0zM106.25 887.5 a6.25 6.25 0 1 0 12.5 0 a6.25 6.25 0 1 0 -12.5 0zM156.25 887.5 a6.25 6.25 0 1 0 12.5 0 a6.25 6.25 0 1 0 -12.5 0zM431.25 887.5 a6.25 6.25 0 1 0 12.5 0 a6.25 6.25 0 1 0 -12.5 0zM556.25 987.5 a6.25 6.25 0 1 0 12.5 0 a6.25 6.25 0 1 0 -12.5 0z" fill="#dd1133"></path><path d="M312.5 487.5L337.5 512.5L362.5 512.5L387.5 512.5M187.5 512.5L212.5 537.5L237.5 537.5L262.5 537.5L287.5 562.5M287.5 487.5L312.5 462.5L337.5 462.5L362.5 462.5L387.5 462.5M262.5 487.5L287.5 512.5L312.5 512.5L337.5 537.5L362.5 537.5M-12.5 562.5L12.5 562.5L37.5 562.5L62.5 562.5L87.5 562.5L112.5 562.5L137.5 562.5L162.5 537.5L187.5 512.5L212.5 512.5L237.5 512.5L262.5 487.5L287.5 487.5L312.5 487.5L337.5 487.5L362.5 487.5" stroke="#dd1133" stroke-width="4.17"></path><path d="M356.25 487.5 a6.25 6.25 0 1 0 12.5 0 a6.25 6.25 0 1 0 -12.5 0zM381.25 512.5 a6.25 6.25 0 1 0 12.5 0 a6.25 6.25 0 1 0 -12.5 0zM281.25 562.5 a6.25 6.25 0 1 0 12.5 0 a6.25 6.25 0 1 0 -12.5 0zM381.25 462.5 a6.25 6.25 0 1 0 12.5 0 a6.25 6.25 0 1 0 -12.5 0zM356.25 537.5 a6.25 6.25 0 1 0 12.5 0 a6.25 6.25 0 1 0 -12.5 0z" fill="#dd1133"></path><path d="M112.5 912.5L137.5 937.5L162.5 962.5M62.5 887.5L87.5 887.5M-12.5 887.5L12.5 887.5L37.5 887.5L62.5 887.5L87.5 912.5L112.5 912.5L137.5 912.5L162.5 937.5" stroke="#3a7cc3" stroke-width="4.17"></path><path d="M156.25 937.5 a6.25 6.25 0 1 0 12.5 0 a6.25 6.25 0 1 0 -12.5 0zM156.25 962.5 a6.25 6.25 0 1 0 12.5 0 a6.25 6.25 0 1 0 -12.5 0zM81.25 887.5 a6.25 6.25 0 1 0 12.5 0 a6.25 6.25 0 1 0 -12.5 0z" fill="#3a7cc3"></path><path d="M-12.5 537.5L12.5 537.5L37.5 537.5L62.5 537.5L87.5 537.5L112.5 537.5L137.5 537.5L162.5 512.5L187.5 487.5L212.5 487.5L237.5 487.5L262.5 462.5" stroke="#dd1133" stroke-width="4.17"></path><path d="M256.25 462.5 a6.25 6.25 0 1 0 12.5 0 a6.25 6.25 0 1 0 -12.5 0z" fill="#dd1133"></path><path d="M-12.5 912.5L12.5 912.5L37.5 912.5" stroke="#3a7cc3" stroke-width="4.17"></path><path d="M31.25 912.5 a6.25 6.25 0 1 0 12.5 0 a6.25 6.25 0 1 0 -12.5 0z" fill="#3a7cc3"></path><path d="M387.5 437.5L412.5 412.5L437.5 412.5L462.5 412.5M487.5 437.5L512.5 412.5L537.5 387.5M537.5 412.5L562.5 437.5L587.5 437.5L612.5 437.5M362.5 437.5L387.5 412.5L412.5 387.5L437.5 387.5L462.5 362.5L487.5 362.5L512.5 362.5M412.5 437.5L437.5 462.5L462.5 462.5L487.5 462.5L512.5 462.5M337.5 437.5L362.5 412.5M-12.5 512.5L12.5 512.5L37.5 512.5L62.5 512.5L87.5 512.5L112.5 512.5L137.5 512.5L162.5 487.5L187.5 462.5L212.5 462.5L237.5 462.5L262.5 437.5L287.5 437.5L312.5 437.5L337.5 437.5L362.5 437.5L387.5 437.5L412.5 437.5L437.5 437.5L462.5 437.5L487.5 437.5L512.5 437.5L537.5 412.5L562.5 412.5" stroke="#dd1133" stroke-width="4.17"></path><path d="M556.25 412.5 a6.25 6.25 0 1 0 12.5 0 a6.25 6.25 0 1 0 -12.5 0zM456.25 412.5 a6.25 6.25 0 1 0 12.5 0 a6.25 6.25 0 1 0 -12.5 0zM531.25 387.5 a6.25 6.25 0 1 0 12.5 0 a6.25 6.25 0 1 0 -12.5 0zM606.25 437.5 a6.25 6.25 0 1 0 12.5 0 a6.25 6.25 0 1 0 -12.5 0zM506.25 362.5 a6.25 6.25 0 1 0 12.5 0 a6.25 6.25 0 1 0 -12.5 0zM506.25 462.5 a6.25 6.25 0 1 0 12.5 0 a6.25 6.25 0 1 0 -12.5 0zM356.25 412.5 a6.25 6.25 0 1 0 12.5 0 a6.25 6.25 0 1 0 -12.5 0z" fill="#dd1133"></path><path d="M-12.5 937.5L12.5 937.5L37.5 937.5L62.5 937.5L87.5 937.5" stroke="#dd1133" stroke-width="4.17"></path><path d="M81.25 937.5 a6.25 6.25 0 1 0 12.5 0 a6.25 6.25 0 1 0 -12.5 0z" fill="#dd1133"></path><path d="M-12.5 487.5L12.5 487.5L37.5 487.5L62.5 487.5L87.5 487.5" stroke="#3a7cc3" stroke-width="4.17"></path><path d="M81.25 487.5 a6.25 6.25 0 1 0 12.5 0 a6.25 6.25 0 1 0 -12.5 0z" fill="#3a7cc3"></path><path d="M-12.5 962.5L12.5 962.5L37.5 962.5L62.5 962.5L87.5 962.5" stroke="#3a7cc3" stroke-width="4.17"></path><path d="M81.25 962.5 a6.25 6.25 0 1 0 12.5 0 a6.25 6.25 0 1 0 -12.5 0z" fill="#3a7cc3"></path><path d="M287.5 387.5L312.5 412.5L337.5 412.5M262.5 412.5L287.5 412.5M112.5 462.5L137.5 487.5M-12.5 462.5L12.5 462.5L37.5 462.5L62.5 462.5L87.5 462.5L112.5 462.5L137.5 462.5L162.5 462.5L187.5 437.5L212.5 437.5L237.5 437.5L262.5 412.5L287.5 387.5L312.5 387.5L337.5 387.5L362.5 387.5" stroke="#3a7cc3" stroke-width="4.17"></path><path d="M356.25 387.5 a6.25 6.25 0 1 0 12.5 0 a6.25 6.25 0 1 0 -12.5 0zM331.25 412.5 a6.25 6.25 0 1 0 12.5 0 a6.25 6.25 0 1 0 -12.5 0zM281.25 412.5 a6.25 6.25 0 1 0 12.5 0 a6.25 6.25 0 1 0 -12.5 0zM131.25 487.5 a6.25 6.25 0 1 0 12.5 0 a6.25 6.25 0 1 0 -12.5 0z" fill="#3a7cc3"></path><path d="M112.5 987.5L137.5 962.5M-12.5 987.5L12.5 987.5L37.5 987.5L62.5 987.5L87.5 987.5L112.5 987.5L137.5 987.5L162.5 987.5" stroke="#dd1133" stroke-width="4.17"></path><path d="M156.25 987.5 a6.25 6.25 0 1 0 12.5 0 a6.25 6.25 0 1 0 -12.5 0zM131.25 962.5 a6.25 6.25 0 1 0 12.5 0 a6.25 6.25 0 1 0 -12.5 0z" fill="#dd1133"></path><path d="M37.5 437.5L62.5 412.5M512.5 337.5L537.5 312.5L562.5 312.5L587.5 312.5L612.5 312.5L637.5 312.5L662.5 312.5M637.5 337.5L662.5 362.5M612.5 337.5L637.5 362.5L662.5 387.5M587.5 337.5L612.5 362.5L637.5 387.5L662.5 412.5M537.5 337.5L562.5 362.5L587.5 362.5L612.5 387.5L637.5 412.5M-12.5 437.5L12.5 437.5L37.5 437.5L62.5 437.5L87.5 437.5L112.5 437.5L137.5 437.5L162.5 437.5L187.5 412.5L212.5 412.5L237.5 412.5L262.5 387.5L287.5 362.5L312.5 362.5L337.5 362.5L362.5 362.5L387.5 362.5L412.5 362.5L437.5 362.5L462.5 337.5L487.5 337.5L512.5 337.5L537.5 337.5L562.5 337.5L587.5 337.5L612.5 337.5L637.5 337.5L662.5 337.5" stroke="#3a7cc3" stroke-width="4.17"></path><path d="M656.25 337.5 a6.25 6.25 0 1 0 12.5 0 a6.25 6.25 0 1 0 -12.5 0zM56.25 412.5 a6.25 6.25 0 1 0 12.5 0 a6.25 6.25 0 1 0 -12.5 0zM656.25 312.5 a6.25 6.25 0 1 0 12.5 0 a6.25 6.25 0 1 0 -12.5 0zM656.25 362.5 a6.25 6.25 0 1 0 12.5 0 a6.25 6.25 0 1 0 -12.5 0zM656.25 387.5 a6.25 6.25 0 1 0 12.5 0 a6.25 6.25 0 1 0 -12.5 0zM656.25 412.5 a6.25 6.25 0 1 0 12.5 0 a6.25 6.25 0 1 0 -12.5 0zM631.25 412.5 a6.25 6.25 0 1 0 12.5 0 a6.25 6.25 0 1 0 -12.5 0z" fill="#3a7cc3"></path><path d="M87.5 1012.5L112.5 1037.5M-12.5 1012.5L12.5 1012.5L37.5 1012.5L62.5 1012.5L87.5 1012.5L112.5 1012.5" stroke="#3a7cc3" stroke-width="4.17"></path><path d="M106.25 1012.5 a6.25 6.25 0 1 0 12.5 0 a6.25 6.25 0 1 0 -12.5 0zM106.25 1037.5 a6.25 6.25 0 1 0 12.5 0 a6.25 6.25 0 1 0 -12.5 0z" fill="#3a7cc3"></path><path d="M512.5 287.5L537.5 262.5L562.5 262.5L587.5 262.5L612.5 262.5L637.5 262.5L662.5 262.5M362.5 337.5L387.5 312.5L412.5 312.5L437.5 312.5M137.5 412.5L162.5 387.5L187.5 362.5L212.5 362.5L237.5 337.5L262.5 337.5M337.5 337.5L362.5 312.5L387.5 287.5L412.5 287.5L437.5 287.5L462.5 287.5L487.5 287.5L512.5 262.5L537.5 237.5M87.5 412.5L112.5 387.5L137.5 387.5L162.5 362.5M212.5 387.5L237.5 387.5M-12.5 412.5L12.5 387.5L37.5 387.5L62.5 387.5L87.5 412.5L112.5 412.5L137.5 412.5L162.5 412.5L187.5 387.5L212.5 387.5L237.5 362.5L262.5 362.5L287.5 337.5L312.5 337.5L337.5 337.5L362.5 337.5L387.5 337.5L412.5 337.5L437.5 337.5L462.5 312.5L487.5 312.5L512.5 287.5L537.5 287.5L562.5 287.5L587.5 287.5L612.5 287.5L637.5 287.5" stroke="#3a7cc3" stroke-width="4.17"></path><path d="M631.25 287.5 a6.25 6.25 0 1 0 12.5 0 a6.25 6.25 0 1 0 -12.5 0zM656.25 262.5 a6.25 6.25 0 1 0 12.5 0 a6.25 6.25 0 1 0 -12.5 0zM431.25 312.5 a6.25 6.25 0 1 0 12.5 0 a6.25 6.25 0 1 0 -12.5 0zM256.25 337.5 a6.25 6.25 0 1 0 12.5 0 a6.25 6.25 0 1 0 -12.5 0zM531.25 237.5 a6.25 6.25 0 1 0 12.5 0 a6.25 6.25 0 1 0 -12.5 0zM156.25 362.5 a6.25 6.25 0 1 0 12.5 0 a6.25 6.25 0 1 0 -12.5 0zM231.25 387.5 a6.25 6.25 0 1 0 12.5 0 a6.25 6.25 0 1 0 -12.5 0z" fill="#3a7cc3"></path><path d="M62.5 1037.5L87.5 1037.5M-12.5 1037.5L12.5 1037.5L37.5 1037.5L62.5 1037.5L87.5 1062.5L112.5 1062.5L137.5 1062.5" stroke="#dd1133" stroke-width="4.17"></path><path d="M131.25 1062.5 a6.25 6.25 0 1 0 12.5 0 a6.25 6.25 0 1 0 -12.5 0zM81.25 1037.5 a6.25 6.25 0 1 0 12.5 0 a6.25 6.25 0 1 0 -12.5 0z" fill="#dd1133"></path><path d="M287.5 1037.5L312.5 1062.5L337.5 1062.5M187.5 1087.5L212.5 1087.5M212.5 1062.5L237.5 1037.5M-12.5 1062.5L12.5 1062.5L37.5 1062.5L62.5 1062.5L87.5 1087.5L112.5 1087.5L137.5 1087.5L162.5 1087.5L187.5 1087.5L212.5 1062.5L237.5 1062.5L262.5 1037.5L287.5 1037.5L312.5 1037.5" stroke="#3a7cc3" stroke-width="4.17"></path><path d="M306.25 1037.5 a6.25 6.25 0 1 0 12.5 0 a6.25 6.25 0 1 0 -12.5 0zM331.25 1062.5 a6.25 6.25 0 1 0 12.5 0 a6.25 6.25 0 1 0 -12.5 0zM206.25 1087.5 a6.25 6.25 0 1 0 12.5 0 a6.25 6.25 0 1 0 -12.5 0zM231.25 1037.5 a6.25 6.25 0 1 0 12.5 0 a6.25 6.25 0 1 0 -12.5 0z" fill="#3a7cc3"></path><path d="M62.5 362.5L87.5 337.5M37.5 362.5L62.5 337.5M12.5 362.5L37.5 337.5L62.5 312.5M-12.5 362.5L12.5 362.5L37.5 362.5L62.5 362.5L87.5 362.5" stroke="#3a7cc3" stroke-width="4.17"></path><path d="M81.25 362.5 a6.25 6.25 0 1 0 12.5 0 a6.25 6.25 0 1 0 -12.5 0zM81.25 337.5 a6.25 6.25 0 1 0 12.5 0 a6.25 6.25 0 1 0 -12.5 0zM56.25 337.5 a6.25 6.25 0 1 0 12.5 0 a6.25 6.25 0 1 0 -12.5 0zM56.25 312.5 a6.25 6.25 0 1 0 12.5 0 a6.25 6.25 0 1 0 -12.5 0z" fill="#3a7cc3"></path></g></g><defs><mask id="SvgjsMask1075"><rect width="1440" height="1440" fill="#ffffff"></rect></mask><linearGradient x1="0%" y1="0%" x2="100%" y2="100%" gradientUnits="userSpaceOnUse" id="SvgjsLinearGradient1076"><stop stop-color="#0e2a47" offset="0"></stop><stop stop-color="#00459e" offset="1"></stop></linearGradient><mask id="SvgjsMask1077"><rect width="1440" height="1440" fill="white"></rect><path d="M534.37 737.5 a3.13 3.13 0 1 0 6.26 0 a3.13 3.13 0 1 0 -6.26 0zM484.37 737.5 a3.13 3.13 0 1 0 6.26 0 a3.13 3.13 0 1 0 -6.26 0zM559.37 712.5 a3.13 3.13 0 1 0 6.26 0 a3.13 3.13 0 1 0 -6.26 0zM534.37 687.5 a3.13 3.13 0 1 0 6.26 0 a3.13 3.13 0 1 0 -6.26 0zM409.37 737.5 a3.13 3.13 0 1 0 6.26 0 a3.13 3.13 0 1 0 -6.26 0zM459.37 662.5 a3.13 3.13 0 1 0 6.26 0 a3.13 3.13 0 1 0 -6.26 0z" fill="black"></path><path d="M234.37 737.5 a3.13 3.13 0 1 0 6.26 0 a3.13 3.13 0 1 0 -6.26 0z" fill="black"></path><path d="M34.37 687.5 a3.13 3.13 0 1 0 6.26 0 a3.13 3.13 0 1 0 -6.26 0z" fill="black"></path><path d="M559.37 762.5 a3.13 3.13 0 1 0 6.26 0 a3.13 3.13 0 1 0 -6.26 0zM534.37 787.5 a3.13 3.13 0 1 0 6.26 0 a3.13 3.13 0 1 0 -6.26 0zM384.37 787.5 a3.13 3.13 0 1 0 6.26 0 a3.13 3.13 0 1 0 -6.26 0zM309.37 787.5 a3.13 3.13 0 1 0 6.26 0 a3.13 3.13 0 1 0 -6.26 0zM359.37 737.5 a3.13 3.13 0 1 0 6.26 0 a3.13 3.13 0 1 0 -6.26 0zM284.37 787.5 a3.13 3.13 0 1 0 6.26 0 a3.13 3.13 0 1 0 -6.26 0zM334.37 737.5 a3.13 3.13 0 1 0 6.26 0 a3.13 3.13 0 1 0 -6.26 0z" fill="black"></path><path d="M284.37 662.5 a3.13 3.13 0 1 0 6.26 0 a3.13 3.13 0 1 0 -6.26 0zM259.37 637.5 a3.13 3.13 0 1 0 6.26 0 a3.13 3.13 0 1 0 -6.26 0zM134.37 687.5 a3.13 3.13 0 1 0 6.26 0 a3.13 3.13 0 1 0 -6.26 0zM209.37 637.5 a3.13 3.13 0 1 0 6.26 0 a3.13 3.13 0 1 0 -6.26 0z" fill="black"></path><path d="M309.37 812.5 a3.13 3.13 0 1 0 6.26 0 a3.13 3.13 0 1 0 -6.26 0zM359.37 862.5 a3.13 3.13 0 1 0 6.26 0 a3.13 3.13 0 1 0 -6.26 0zM334.37 862.5 a3.13 3.13 0 1 0 6.26 0 a3.13 3.13 0 1 0 -6.26 0zM159.37 787.5 a3.13 3.13 0 1 0 6.26 0 a3.13 3.13 0 1 0 -6.26 0z" fill="black"></path><path d="M659.37 587.5 a3.13 3.13 0 1 0 6.26 0 a3.13 3.13 0 1 0 -6.26 0zM559.37 662.5 a3.13 3.13 0 1 0 6.26 0 a3.13 3.13 0 1 0 -6.26 0zM559.37 587.5 a3.13 3.13 0 1 0 6.26 0 a3.13 3.13 0 1 0 -6.26 0zM659.37 562.5 a3.13 3.13 0 1 0 6.26 0 a3.13 3.13 0 1 0 -6.26 0zM334.37 637.5 a3.13 3.13 0 1 0 6.26 0 a3.13 3.13 0 1 0 -6.26 0zM634.37 612.5 a3.13 3.13 0 1 0 6.26 0 a3.13 3.13 0 1 0 -6.26 0zM409.37 637.5 a3.13 3.13 0 1 0 6.26 0 a3.13 3.13 0 1 0 -6.26 0zM159.37 637.5 a3.13 3.13 0 1 0 6.26 0 a3.13 3.13 0 1 0 -6.26 0z" fill="black"></path><path d="M184.37 837.5 a3.13 3.13 0 1 0 6.26 0 a3.13 3.13 0 1 0 -6.26 0zM134.37 812.5 a3.13 3.13 0 1 0 6.26 0 a3.13 3.13 0 1 0 -6.26 0z" fill="black"></path><path d="M109.37 612.5 a3.13 3.13 0 1 0 6.26 0 a3.13 3.13 0 1 0 -6.26 0z" fill="black"></path><path d="M234.37 887.5 a3.13 3.13 0 1 0 6.26 0 a3.13 3.13 0 1 0 -6.26 0zM209.37 862.5 a3.13 3.13 0 1 0 6.26 0 a3.13 3.13 0 1 0 -6.26 0z" fill="black"></path><path d="M334.37 587.5 a3.13 3.13 0 1 0 6.26 0 a3.13 3.13 0 1 0 -6.26 0zM359.37 562.5 a3.13 3.13 0 1 0 6.26 0 a3.13 3.13 0 1 0 -6.26 0zM259.37 562.5 a3.13 3.13 0 1 0 6.26 0 a3.13 3.13 0 1 0 -6.26 0zM184.37 587.5 a3.13 3.13 0 1 0 6.26 0 a3.13 3.13 0 1 0 -6.26 0z" fill="black"></path><path d="M634.37 912.5 a3.13 3.13 0 1 0 6.26 0 a3.13 3.13 0 1 0 -6.26 0zM659.37 937.5 a3.13 3.13 0 1 0 6.26 0 a3.13 3.13 0 1 0 -6.26 0zM309.37 887.5 a3.13 3.13 0 1 0 6.26 0 a3.13 3.13 0 1 0 -6.26 0zM109.37 887.5 a3.13 3.13 0 1 0 6.26 0 a3.13 3.13 0 1 0 -6.26 0zM159.37 887.5 a3.13 3.13 0 1 0 6.26 0 a3.13 3.13 0 1 0 -6.26 0zM434.37 887.5 a3.13 3.13 0 1 0 6.26 0 a3.13 3.13 0 1 0 -6.26 0zM559.37 987.5 a3.13 3.13 0 1 0 6.26 0 a3.13 3.13 0 1 0 -6.26 0z" fill="black"></path><path d="M359.37 487.5 a3.13 3.13 0 1 0 6.26 0 a3.13 3.13 0 1 0 -6.26 0zM384.37 512.5 a3.13 3.13 0 1 0 6.26 0 a3.13 3.13 0 1 0 -6.26 0zM284.37 562.5 a3.13 3.13 0 1 0 6.26 0 a3.13 3.13 0 1 0 -6.26 0zM384.37 462.5 a3.13 3.13 0 1 0 6.26 0 a3.13 3.13 0 1 0 -6.26 0zM359.37 537.5 a3.13 3.13 0 1 0 6.26 0 a3.13 3.13 0 1 0 -6.26 0z" fill="black"></path><path d="M159.37 937.5 a3.13 3.13 0 1 0 6.26 0 a3.13 3.13 0 1 0 -6.26 0zM159.37 962.5 a3.13 3.13 0 1 0 6.26 0 a3.13 3.13 0 1 0 -6.26 0zM84.37 887.5 a3.13 3.13 0 1 0 6.26 0 a3.13 3.13 0 1 0 -6.26 0z" fill="black"></path><path d="M259.37 462.5 a3.13 3.13 0 1 0 6.26 0 a3.13 3.13 0 1 0 -6.26 0z" fill="black"></path><path d="M34.37 912.5 a3.13 3.13 0 1 0 6.26 0 a3.13 3.13 0 1 0 -6.26 0z" fill="black"></path><path d="M559.37 412.5 a3.13 3.13 0 1 0 6.26 0 a3.13 3.13 0 1 0 -6.26 0zM459.37 412.5 a3.13 3.13 0 1 0 6.26 0 a3.13 3.13 0 1 0 -6.26 0zM534.37 387.5 a3.13 3.13 0 1 0 6.26 0 a3.13 3.13 0 1 0 -6.26 0zM609.37 437.5 a3.13 3.13 0 1 0 6.26 0 a3.13 3.13 0 1 0 -6.26 0zM509.37 362.5 a3.13 3.13 0 1 0 6.26 0 a3.13 3.13 0 1 0 -6.26 0zM509.37 462.5 a3.13 3.13 0 1 0 6.26 0 a3.13 3.13 0 1 0 -6.26 0zM359.37 412.5 a3.13 3.13 0 1 0 6.26 0 a3.13 3.13 0 1 0 -6.26 0z" fill="black"></path><path d="M84.37 937.5 a3.13 3.13 0 1 0 6.26 0 a3.13 3.13 0 1 0 -6.26 0z" fill="black"></path><path d="M84.37 487.5 a3.13 3.13 0 1 0 6.26 0 a3.13 3.13 0 1 0 -6.26 0z" fill="black"></path><path d="M84.37 962.5 a3.13 3.13 0 1 0 6.26 0 a3.13 3.13 0 1 0 -6.26 0z" fill="black"></path><path d="M359.37 387.5 a3.13 3.13 0 1 0 6.26 0 a3.13 3.13 0 1 0 -6.26 0zM334.37 412.5 a3.13 3.13 0 1 0 6.26 0 a3.13 3.13 0 1 0 -6.26 0zM284.37 412.5 a3.13 3.13 0 1 0 6.26 0 a3.13 3.13 0 1 0 -6.26 0zM134.37 487.5 a3.13 3.13 0 1 0 6.26 0 a3.13 3.13 0 1 0 -6.26 0z" fill="black"></path><path d="M159.37 987.5 a3.13 3.13 0 1 0 6.26 0 a3.13 3.13 0 1 0 -6.26 0zM134.37 962.5 a3.13 3.13 0 1 0 6.26 0 a3.13 3.13 0 1 0 -6.26 0z" fill="black"></path><path d="M659.37 337.5 a3.13 3.13 0 1 0 6.26 0 a3.13 3.13 0 1 0 -6.26 0zM59.37 412.5 a3.13 3.13 0 1 0 6.26 0 a3.13 3.13 0 1 0 -6.26 0zM659.37 312.5 a3.13 3.13 0 1 0 6.26 0 a3.13 3.13 0 1 0 -6.26 0zM659.37 362.5 a3.13 3.13 0 1 0 6.26 0 a3.13 3.13 0 1 0 -6.26 0zM659.37 387.5 a3.13 3.13 0 1 0 6.26 0 a3.13 3.13 0 1 0 -6.26 0zM659.37 412.5 a3.13 3.13 0 1 0 6.26 0 a3.13 3.13 0 1 0 -6.26 0zM634.37 412.5 a3.13 3.13 0 1 0 6.26 0 a3.13 3.13 0 1 0 -6.26 0z" fill="black"></path><path d="M109.37 1012.5 a3.13 3.13 0 1 0 6.26 0 a3.13 3.13 0 1 0 -6.26 0zM109.37 1037.5 a3.13 3.13 0 1 0 6.26 0 a3.13 3.13 0 1 0 -6.26 0z" fill="black"></path><path d="M634.37 287.5 a3.13 3.13 0 1 0 6.26 0 a3.13 3.13 0 1 0 -6.26 0zM659.37 262.5 a3.13 3.13 0 1 0 6.26 0 a3.13 3.13 0 1 0 -6.26 0zM434.37 312.5 a3.13 3.13 0 1 0 6.26 0 a3.13 3.13 0 1 0 -6.26 0zM259.37 337.5 a3.13 3.13 0 1 0 6.26 0 a3.13 3.13 0 1 0 -6.26 0zM534.37 237.5 a3.13 3.13 0 1 0 6.26 0 a3.13 3.13 0 1 0 -6.26 0zM159.37 362.5 a3.13 3.13 0 1 0 6.26 0 a3.13 3.13 0 1 0 -6.26 0zM234.37 387.5 a3.13 3.13 0 1 0 6.26 0 a3.13 3.13 0 1 0 -6.26 0z" fill="black"></path><path d="M134.37 1062.5 a3.13 3.13 0 1 0 6.26 0 a3.13 3.13 0 1 0 -6.26 0zM84.37 1037.5 a3.13 3.13 0 1 0 6.26 0 a3.13 3.13 0 1 0 -6.26 0z" fill="black"></path><path d="M309.37 1037.5 a3.13 3.13 0 1 0 6.26 0 a3.13 3.13 0 1 0 -6.26 0zM334.37 1062.5 a3.13 3.13 0 1 0 6.26 0 a3.13 3.13 0 1 0 -6.26 0zM209.37 1087.5 a3.13 3.13 0 1 0 6.26 0 a3.13 3.13 0 1 0 -6.26 0zM234.37 1037.5 a3.13 3.13 0 1 0 6.26 0 a3.13 3.13 0 1 0 -6.26 0z" fill="black"></path><path d="M84.37 362.5 a3.13 3.13 0 1 0 6.26 0 a3.13 3.13 0 1 0 -6.26 0zM84.37 337.5 a3.13 3.13 0 1 0 6.26 0 a3.13 3.13 0 1 0 -6.26 0zM59.37 337.5 a3.13 3.13 0 1 0 6.26 0 a3.13 3.13 0 1 0 -6.26 0zM59.37 312.5 a3.13 3.13 0 1 0 6.26 0 a3.13 3.13 0 1 0 -6.26 0z" fill="black"></path></mask></defs></svg>